<?xml version="1.0" standalone="no"?>
<!DOCTYPE svg PUBLIC "-//W3C//DTD SVG 20010904//EN"
 "http://www.w3.org/TR/2001/REC-SVG-20010904/DTD/svg10.dtd">
<svg version="1.0" xmlns="http://www.w3.org/2000/svg"
 width="235.000000pt" height="237.000000pt" viewBox="0 0 235.000000 237.000000"
 preserveAspectRatio="xMidYMid meet">

<g transform="translate(0.000000,237.000000) scale(0.100000,-0.100000)"
fill="#000000" stroke="none">
<path d="M1122 1744 c-53 -22 -92 -54 -92 -75 0 -26 8 -24 58 16 24 19 52 37
63 40 19 6 25 20 11 29 -4 2 -22 -2 -40 -10z"/>
<path d="M1037 1393 c-4 -3 -7 -15 -7 -25 0 -16 9 -18 64 -18 60 0 64 1 68 25
5 24 4 25 -57 25 -34 0 -65 -3 -68 -7z"/>
<path d="M1030 916 c0 -23 4 -26 33 -26 29 0 33 3 32 23 -1 17 -9 23 -33 25
-28 3 -32 0 -32 -22z"/>
<path d="M1024 776 c-14 -38 2 -46 89 -46 65 0 88 4 98 16 10 13 10 17 -2 25
-8 5 -23 9 -35 9 -12 0 -49 3 -82 6 -52 6 -63 4 -68 -10z"/>
<path d="M1030 575 c0 -8 19 -23 43 -33 69 -31 147 -48 147 -31 0 5 -7 9 -15
9 -8 0 -15 5 -15 10 0 6 -6 10 -14 10 -8 0 -38 11 -68 25 -61 29 -78 31 -78
10z"/>
<path d="M657 532 c-22 -4 -22 -7 6 -38 31 -36 131 -106 197 -138 63 -31 64
-32 -76 84 -43 36 -85 72 -94 80 -8 8 -23 14 -33 12z"/>
<path d="M1250 320 c-139 -11 -183 -31 -94 -44 59 -8 171 -6 204 3 16 5 25 14
26 29 1 24 10 24 -136 12z"/>
</g>
</svg>
